/* XPM */
static char *checker_south1687708056[] = {
/* columns rows colors chars-per-pixel */
"128 128 44 1 ",
"  c gray37",
". c DimGray",
"X c #8E8E8E",
"o c #AAAAAA",
"O c #B4B4B4",
"+ c gray85",
"@ c #D7D7D7",
"# c gray80",
"$ c #AEAEAE",
"% c #9A9A9A",
"& c #868686",
"* c #727272",
"= c gray89",
"- c white",
"; c gray96",
": c #7C7C7C",
"> c gray78",
", c gray76",
"< c gray57",
"1 c #989898",
"2 c #F6F6F6",
"3 c #DADADA",
"4 c gray92",
"5 c gray52",
"6 c #686868",
"7 c #AFAFAF",
"8 c #E1E1E1",
"9 c #ECECEC",
"0 c #9B9B9B",
"q c #A5A5A5",
"w c #C3C3C3",
"e c gray56",
"r c #CDCDCD",
"t c #B9B9B9",
"y c #A4A4A4",
"u c #979797",
"i c #D0D0D0",
"p c gray63",
"a c gray",
"s c gray82",
"d c #909090",
"f c gray72",
"g c gray67",
"h c gray93",
/* pixels */
"                ................                ................                ................                ................",
"                ................                ................                ................                ................",
"                ................                ................                ................                ................",
"                ................                ................                ................                ................",
"                ................                ................                ................                ................",
"                ................                ................                ................                ................",
"                ................                ................                ................                ................",
"                ................                ................                ................                ................",
"                ................                ................                ................                ................",
"                ................                ................                ................                ................",
"                ................                ................                ................                ................",
"                ................                ................                ................                ................",
"                ................                ................                ................                ................",
"                ................                ................                ................                ................",
"                ................                ................                ................                ................",
"                ................                ................                ................                ................",
"................                ................                ................                ................                ",
"................                ................                ................                ................                ",
"................                ................                ................                ................                ",
"................                ................                ................                ................                ",
"................                ................                ................                ................                ",
"................                ................                ................                ................                ",
"................                ................                ................                ................                ",
"................                ................                ................                ................                ",
"................                ................                ................                ................                ",
"................                ................                ................                ................                ",
"................                ................                ................                ................                ",
"................                ................                ................                ................                ",
"................                ................                ................                ................                ",
"................                ................                ................                ................                ",
"................                ................                ................                ................                ",
"................                ................                ................                ................                ",
"                ................                ................                ................                ................",
"                ................                ................                ................                ................",
"                ................                ................                ................                ................",
"                ................                ................                ................                ................",
"                ................                ................                ................                ................",
"                ................                ................                ................                ................",
"                ................                ..........XoOO++@#$$%&*         ................                ................",
"                ................                ......*o=--------------;#$:     ................                ................",
"                ................                ....*>---------------------;,<  ................                ................",
"                ................                ...12------------------------@  ................                ................",
"                ................                ..>--------------------------@  ................                ................",
"                ................                .>------------=3@@@4---------@  ................                ................",
"                ................                1--------->5....    6&78-----@  ................                ................",
"                ................               69------2O*......        60@--@  ................                ................",
"                ................               q------25........           :w@  ................                ................",
"                ................               8------e.........                ................                ................",
"................                ..............:------r          ................                ................                ",
"................                ..............e------0          ................                ................                ",
"................                ..............O------&          ................                ................                ",
"................                ..............O------           ................                ................                ",
"................                ..............O------&          ................                ................                ",
"................                ..............O------0          ................                ................                ",
"................                ..............O------t          ................                ................                ",
"................                ..............5-------&         ................                ................                ",
"................                ...............2------4*        ................                ................                ",
"................                ...............>-------;$6      ................                ................                ",
"................                ...............:----------#y:   ................                ................                ",
"................                ................7------------;@$u:..............                ................                ",
"................                ................ w----------------2io5..........                ................                ",
"................                ................  t-------------------9o:.......                ................                ",
"................                ................   <4-------------------->*.....                ................                ",
"................                ................     08-------------------2p....                ................                ",
"                ................                .......5a=------------------,   ................                ................",
"                ................                ..........*1a3---------------,  ................                ................",
"                ................                ...............50w2-----------q ................                ................",
"                ................                ................   &t2---------*................                ................",
"                ................                ................     *r--------w................                ................",
"                ................                ................       <--------................                ................",
"                ................                ................        t-------e...............                ................",
"                ................                ................        64------O...............                ................",
"                ................                ................         7------s...............                ................",
"                ................                ................         0------3...............                ................",
"                ................                ................         &------3...............                ................",
"                ................                ................         :------3...............                ................",
"                ................                ................         &------>...............                ................",
"                ................                ................         q------O...............                ................",
"                ................                ................         8------1...............                ................",
"                ................              q$*...............        q------2................                ................",
"................                ..............O-;$6             .......12------s                ................                ",
"................                ..............O----,d           .....*O--------5                ................                ",
"................                ..............O------;fd*       ...:>---------O.                ................                ",
"................                ..............O----------4@,$$$$++2----------=*.                ................                ",
"................                ..............O-----------------------------=*..                ................                ",
"................                ..............g----------------------------a*...                ................                ",
"................                ...............:q8-----------------------=e.....                ................                ",
"................                ................  *0w4----------------ha5.......                ................                ",
"................                ................      *&7t@@8--4333O15..........                ................                ",
"................                ................                ................                ................                ",
"................                ................                ................                ................                ",
"................                ................                ................                ................                ",
"................                ................                ................                ................                ",
"................                ................                ................                ................                ",
"................                ................                ................                ................                ",
"................                ................                ................                ................                ",
"                ................                ................                ................                ................",
"                ................                ................                ................                ................",
"                ................                ................                ................                ................",
"                ................                ................                ................                ................",
"                ................                ................                ................                ................",
"                ................                ................                ................                ................",
"                ................                ................                ................                ................",
"                ................                ................                ................                ................",
"                ................                ................                ................                ................",
"                ................                ................                ................                ................",
"                ................                ................                ................                ................",
"                ................                ................                ................                ................",
"                ................                ................                ................                ................",
"                ................                ................                ................                ................",
"                ................                ................                ................                ................",
"                ................                ................                ................                ................",
"................                ................                ................                ................                ",
"................                ................                ................                ................                ",
"................                ................                ................                ................                ",
"................                ................                ................                ................                ",
"................                ................                ................                ................                ",
"................                ................                ................                ................                ",
"................                ................                ................                ................                ",
"................                ................                ................                ................                ",
"................                ................                ................                ................                ",
"................                ................                ................                ................                ",
"................                ................                ................                ................                ",
"................                ................                ................                ................                ",
"................                ................                ................                ................                ",
"................                ................                ................                ................                ",
"................                ................                ................                ................                ",
"................                ................                ................                ................                "
};
