/* XPM */
static char *checker_north1687708056[] = {
/* columns rows colors chars-per-pixel */
"128 128 77 1 ",
"  c gray37",
". c DimGray",
"X c gray57",
"o c #D7D7D7",
"O c #DADADA",
"+ c #B4B4B4",
"@ c gray78",
"# c gray65",
"$ c gray64",
"% c white",
"& c #FDFDFD",
"* c #7C7C7C",
"= c gray92",
"- c #BBBBBB",
"; c #CECECE",
": c #838383",
"> c gray55",
", c gray88",
"< c #9A9A9A",
"1 c #A2A2A2",
"2 c #E9E9E9",
"3 c #EAEAEA",
"4 c gray73",
"5 c #9D9D9D",
"6 c #A9A9A9",
"7 c gray89",
"8 c gray93",
"9 c gray38",
"0 c #ECECEC",
"q c #B6B6B6",
"w c #A7A7A7",
"e c gray85",
"r c #F4F4F4",
"t c #646464",
"y c #7E7E7E",
"u c #B1B1B1",
"i c #F8F8F8",
"p c #767676",
"a c #FEFEFE",
"s c gray77",
"d c gray99",
"f c #6F6F6F",
"g c #C5C5C5",
"h c gray81",
"j c #AFAFAF",
"k c gray53",
"l c gainsboro",
"z c #A5A5A5",
"x c gray59",
"c c gray91",
"v c #6A6A6A",
"b c #9B9B9B",
"n c #9F9F9F",
"m c #5F5F5F",
"M c #E6E6E6",
"N c #EFEFEF",
"B c gray42",
"V c gray60",
"C c #ACACAC",
"Z c gray84",
"A c gray80",
"S c #C0C0C0",
"D c gray",
"F c #6C6C6C",
"G c gray98",
"H c #CBCBCB",
"J c #676767",
"K c #F6F6F6",
"L c #AAAAAA",
"P c #898989",
"I c #626262",
"U c gray94",
"Y c #929292",
"T c gray90",
"R c #939393",
"E c gray82",
"W c gray50",
/* pixels */
"                ................                ................                ................                ................",
"                ................                ................                ................                ................",
"                ................                ................                ................                ................",
"                ................                ................                ................                ................",
"                ................                ................                ................                ................",
"                ................                ................                ................                ................",
"                ................                ................                ................                ................",
"                ................                ................                ................                ................",
"                ................                ................                ................                ................",
"                ................                ................                ................                ................",
"                ................                ................                ................                ................",
"                ................                ................                ................                ................",
"                ................                ................                ................                ................",
"                ................                ................                ................                ................",
"                ................                ................                ................                ................",
"                ................                ................                ................                ................",
"................                ................                ................                ................                ",
"................                ................                ................                ................                ",
"................                ................                ................                ................                ",
"................                ................                ................                ................                ",
"................                ................                ................                ................                ",
"................                ................                ................                ................                ",
"................                ................                ................                ................                ",
"................                ................                ................                ................                ",
"................                ................                ................                ................                ",
"................                ................                ................                ................                ",
"................                ................                ................                ................                ",
"................                ................                ................                ................                ",
"................                ................                ................                ................                ",
"................                ................                ................                ................                ",
"................                ................                ................                ................                ",
"................                ................                ................                ................                ",
"                ................                ................                ................                ................",
"                ................                ................                ................                ................",
"                ................                ................                ................                ................",
"                ................                ................                ................                ................",
"                ................                ................                ................                ................",
"                ................                ................                ................                ................",
"                ................            XoooOOOOO+..........           @ooooO#..............                ................",
"                ................            $%%%%%%%%&*.........           =%%%%%-..............                ................",
"                ................            $%%%%%%%%%;.........           =%%%%%-..............                ................",
"                ................            $%%%%%%%%%%:........           =%%%%%-..............                ................",
"                ................            $%%%%%%%%%%o........           =%%%%%-..............                ................",
"                ................            $%%%%%%%%%%%>.......           =%%%%%-..............                ................",
"                ................            $%%%%%%%%%%%,.......           =%%%%%-..............                ................",
"                ................            $%%%%%%%%%%%%<......           =%%%%%-..............                ................",
"                ................            1%%%%%%=%%%%%2......           3%%%%%4..............                ................",
"                ................            1%%%%%%5%%%%%%$.....           =%%%%%-..............                ................",
"................                ............6%%%%%% 7%%%%%89    ...........0%%%%%q              ................                ",
"................                ............6%%%%%% >%%%%%%w    ...........0%%%%%q              ................                ",
"................                ............6%%%%%&  e%%%%%rt   ...........0%%%%%q              ................                ",
"................                ............6%%%%%&  y%%%%%%u   ...........0%%%%%q              ................                ",
"................                ............6%%%%%&   ;%%%%%i.  ...........0%%%%%q              ................                ",
"................                ............6%%%%%&   pa%%%%%-  ...........0%%%%%q              ................                ",
"................                ............6%%%%%&    s%%%%%df ...........0%%%%%q              ................                ",
"................                ............6%%%%%&    fd%%%%%g ...........0%%%%%q              ................                ",
"................                ............6%%%%%&     4%%%%%ap...........0%%%%%q              ................                ",
"................                ............6%%%%%&     .i%%%%%h...........0%%%%%q              ................                ",
"................                ............6%%%%%&      j%%%%%%k..........0%%%%%q              ................                ",
"................                ............6%%%%%&      tr%%%%%l..........0%%%%%q              ................                ",
"................                ............6%%%%%&       z%%%%%%x.........0%%%%%q              ................                ",
"................                ............6%%%%%&       98%%%%%cv........0%%%%%q              ................                ",
"................                ............6%%%%%&        b%%%%%%n........0%%%%%q              ................                ",
"................                ............6%%%%%&        mM%%%%%NB.......0%%%%%q              ................                ",
"                ................            $%%%%%&.........V%%%%%%1       =%%%%%-..............                ................",
"                ................            $%%%%%&..........,%%%%%rt      =%%%%%-..............                ................",
"                ................            $%%%%%&..........>%%%%%%C      =%%%%%-..............                ................",
"                ................            $%%%%%&...........Z%%%%%i.     =%%%%%-..............                ................",
"                ................            $%%%%%&...........:%%%%%%q     =%%%%%-..............                ................",
"                ................            $%%%%%&............A%%%%%df    =%%%%%-..............                ................",
"                ................            $%%%%%&............*&%%%%%S    =%%%%%-..............                ................",
"                ................            $%%%%%&.............D%%%%%ap   =%%%%%-..............                ................",
"                ................            $%%%%%&.............FG%%%%%H   =%%%%%-..............                ................",
"                ................            $%%%%%&............. +%%%%%%y  =%%%%%-..............                ................",
"                ................            $%%%%%&............. JK%%%%%e  =%%%%%-..............                ................",
"                ................            $%%%%%&.............  L%%%%%%P =%%%%%-..............                ................",
"                ................            $%%%%%&.............  IU%%%%%7 =%%%%%-..............                ................",
"                ................            $%%%%%&.............   n%%%%%%Y=%%%%%-..............                ................",
"                ................            $%%%%%&.............    3%%%%%30%%%%%4..............                ................",
"                ................            $%%%%%&.............    x%%%%%%%%%%%%-..............                ................",
"................                ............6%%%%%&             .....T%%%%%%%%%%%q              ................                ",
"................                ............6%%%%%&             .....R%%%%%%%%%%%q              ................                ",
"................                ............6%%%%%&             ......l%%%%%%%%%%q              ................                ",
"................                ............6%%%%%&             ......k%%%%%%%%%%q              ................                ",
"................                ............6%%%%%&             .......E%%%%%%%%%q              ................                ",
"................                ............6%%%%%&             .......Wa%%%%%%%%q              ................                ",
"................                ............6%%%%%&             ........@%%%%%%%%q              ................                ",
"................                ................                ................                ................                ",
"................                ................                ................                ................                ",
"................                ................                ................                ................                ",
"................                ................                ................                ................                ",
"................                ................                ................                ................                ",
"................                ................                ................                ................                ",
"................                ................                ................                ................                ",
"................                ................                ................                ................                ",
"................                ................                ................                ................                ",
"                ................                ................                ................                ................",
"                ................                ................                ................                ................",
"                ................                ................                ................                ................",
"                ................                ................                ................                ................",
"                ................                ................                ................                ................",
"                ................                ................                ................                ................",
"                ................                ................                ................                ................",
"                ................                ................                ................                ................",
"                ................                ................                ................                ................",
"                ................                ................                ................                ................",
"                ................                ................                ................                ................",
"                ................                ................                ................                ................",
"                ................                ................                ................                ................",
"                ................                ................                ................                ................",
"                ................                ................                ................                ................",
"                ................                ................                ................                ................",
"................                ................                ................                ................                ",
"................                ................                ................                ................                ",
"................                ................                ................                ................                ",
"................                ................                ................                ................                ",
"................                ................                ................                ................                ",
"................                ................                ................                ................                ",
"................                ................                ................                ................                ",
"................                ................                ................                ................                ",
"................                ................                ................                ................                ",
"................                ................                ................                ................                ",
"................                ................                ................                ................                ",
"................                ................                ................                ................                ",
"................                ................                ................                ................                ",
"................                ................                ................                ................                ",
"................                ................                ................                ................                ",
"................                ................                ................                ................                "
};
