/* XPM */
static char *checker_east1687708056[] = {
/* columns rows colors chars-per-pixel */
"128 128 22 1 ",
"  c gray37",
". c DimGray",
"X c gray60",
"o c #DADADA",
"O c #D7D7D7",
"+ c #959595",
"@ c #A9A9A9",
"# c white",
"$ c gray66",
"% c gray88",
"& c gray52",
"* c gray64",
"= c #7C7C7C",
"- c #A2A2A2",
"; c gray87",
": c #9A9A9A",
"> c gray67",
", c #939393",
"< c gray74",
"1 c #AFAFAF",
"2 c #B4B4B4",
"3 c gray40",
/* pixels */
"                ................                ................                ................                ................",
"                ................                ................                ................                ................",
"                ................                ................                ................                ................",
"                ................                ................                ................                ................",
"                ................                ................                ................                ................",
"                ................                ................                ................                ................",
"                ................                ................                ................                ................",
"                ................                ................                ................                ................",
"                ................                ................                ................                ................",
"                ................                ................                ................                ................",
"                ................                ................                ................                ................",
"                ................                ................                ................                ................",
"                ................                ................                ................                ................",
"                ................                ................                ................                ................",
"                ................                ................                ................                ................",
"                ................                ................                ................                ................",
"................                ................                ................                ................                ",
"................                ................                ................                ................                ",
"................                ................                ................                ................                ",
"................                ................                ................                ................                ",
"................                ................                ................                ................                ",
"................                ................                ................                ................                ",
"................                ................                ................                ................                ",
"................                ................                ................                ................                ",
"................                ................                ................                ................                ",
"................                ................                ................                ................                ",
"................                ................                ................                ................                ",
"................                ................                ................                ................                ",
"................                ................                ................                ................                ",
"................                ................                ................                ................                ",
"................                ................                ................                ................                ",
"................                ................                ................                ................                ",
"                ................                ................                ................                ................",
"                ................                ................                ................                ................",
"                ................                ................                ................                ................",
"                ................                ................                ................                ................",
"                ................                ................                ................                ................",
"                ................                ................                ................                ................",
"                ................                ................                ................                ................",
"                ................                XoooooooooooooooOOOOOOOOOOOOOOO+................                ................",
"                ................                @##############################$................                ................",
"                ................                @##############################$................                ................",
"                ................                @##############################$................                ................",
"                ................                @##############################$................                ................",
"                ................                @######%ooooooooOOOOOOOOOOOOOOO+................                ................",
"                ................                @######&........                ................                ................",
"                ................                @######&........                ................                ................",
"                ................                @######&........                ................                ................",
"................                ................*######=        ................                ................                ",
"................                ................*######=        ................                ................                ",
"................                ................*######=        ................                ................                ",
"................                ................*######=        ................                ................                ",
"................                ................*######=        ................                ................                ",
"................                ................*######=        ................                ................                ",
"................                ................*######=        ................                ................                ",
"................                ................*######=        ................                ................                ",
"................                ................*######=        ................                ................                ",
"................                ................*######=        ................                ................                ",
"................                ................*######=        ................                ................                ",
"................                ................-######;OOOOOOOOoooooooooooooo:.                ................                ",
"................                ................*#############################>.                ................                ",
"................                ................*#############################>.                ................                ",
"................                ................*#############################>.                ................                ",
"................                ................*#############################>.                ................                ",
"                ................                @######%ooooooooOOOOOOOOOOOOOO, ................                ................",
"                ................                @######&........                ................                ................",
"                ................                @######&........                ................                ................",
"                ................                @######&........                ................                ................",
"                ................                @######&........                ................                ................",
"                ................                @######&........                ................                ................",
"                ................                @######&........                ................                ................",
"                ................                @######&........                ................                ................",
"                ................                @######&........                ................                ................",
"                ................                @######&........                ................                ................",
"                ................                @######&........                ................                ................",
"                ................                @######&........                ................                ................",
"                ................                @######&........                ................                ................",
"                ................                @######&........                ................                ................",
"                ................                @######&........                ................                ................",
"                ................                @######&........                ................                ................",
"................                ................*######=        ................                ................                ",
"................                ................*######=        ................                ................                ",
"................                ................-######<111111112222222222222222                ................                ",
"................                ................*###############################3               ................                ",
"................                ................*###############################3               ................                ",
"................                ................*###############################3               ................                ",
"................                ................*###############################3               ................                ",
"................                ................*###############################3               ................                ",
"................                ................                ................                ................                ",
"................                ................                ................                ................                ",
"................                ................                ................                ................                ",
"................                ................                ................                ................                ",
"................                ................                ................                ................                ",
"................                ................                ................                ................                ",
"................                ................                ................                ................                ",
"................                ................                ................                ................                ",
"                ................                ................                ................                ................",
"                ................                ................                ................                ................",
"                ................                ................                ................                ................",
"                ................                ................                ................                ................",
"                ................                ................                ................                ................",
"                ................                ................                ................                ................",
"                ................                ................                ................                ................",
"                ................                ................                ................                ................",
"                ................                ................                ................                ................",
"                ................                ................                ................                ................",
"                ................                ................                ................                ................",
"                ................                ................                ................                ................",
"                ................                ................                ................                ................",
"                ................                ................                ................                ................",
"                ................                ................                ................                ................",
"                ................                ................                ................                ................",
"................                ................                ................                ................                ",
"................                ................                ................                ................                ",
"................                ................                ................                ................                ",
"................                ................                ................                ................                ",
"................                ................                ................                ................                ",
"................                ................                ................                ................                ",
"................                ................                ................                ................                ",
"................                ................                ................                ................                ",
"................                ................                ................                ................                ",
"................                ................                ................                ................                ",
"................                ................                ................                ................                ",
"................                ................                ................                ................                ",
"................                ................                ................                ................                ",
"................                ................                ................                ................                ",
"................                ................                ................                ................                ",
"................                ................                ................                ................                "
};
