/* XPM */
static char *_6299350542541f485297fbd615fee925LmL3ZsAPONrmSEl[] = {
/* columns rows colors chars-per-pixel */
"64 64 26 1 ",
"  c #646464",
". c gray22",
"X c gray33",
"o c #484848",
"O c #EC0000",
"+ c #D40000",
"@ c #A40000",
"# c #E00000",
"$ c #C80000",
"% c #BC0000",
"& c #B00000",
"* c #880000",
"= c #640000",
"- c #2C2C2C",
"; c #7C0000",
": c #980000",
"> c #700000",
", c #580000",
"< c #400000",
"1 c #4C0000",
"2 c #202020",
"3 c gray36",
"4 c gray25",
"5 c #343434",
"6 c #4C4C4C",
"7 c gray19",
/* pixels */
"                                                                ",
"................................................................",
"X.XoooooXooooooXo.oooooooXXXXXXoooooooooXXXXXXXoooo...ooXXooooo.",
".OO+++++++++@ooXOO++++++++++++++++++@o.XOOOO######+++++$$$$%%%@o",
"oO$&&+*@+*$@=-oXO%*%*%*%;%:%:%;%;%$@>-o.+@$&$&&$>$;$&$*&@;$:$@;-",
"o+@;@*@:>@*>=-oX+%**@*>@@>:@@>:@>@:>,-oX+@@;=@*>*@;*@@*@;*@,@>=-",
"o+;@@>:@@>@,<-oX+*%@*@>@*@>@>*;@>:;>,-oo+>@=*@=@>@;@*@=@:;@;@>1-",
"o$@;*:;@>*@><-oX%%*@**:@>*>@*>:;*>@><-.o%>@;@*=@>>@@>@*@@;@,@*1-",
"o%;@@>@:>:>,<-oo%$*@>@>@>@>:*>;@>:;>,-.o%:@=*@;*>*;@*@=@;*@;@><-",
"o%@>*,>;,>*><-.X::>>1*>>*>1>*>*>1*>><-.o%>>,>>1*1>,*1>1*=1>*>*<-",
"o;===<<<<<<<<-.o;==,,,,,,,,,<<<<<<<<<-.o*==========,,,,,,,,,<<<-",
"oo--------222-.Xo-----22222--2222-----oX.-----------22222-------",
"X....oooo.....o.ooooooo...Xooo..ooooooX.oXXXX3  3XXoo4.4X.XoooX.",
"O+++%%%%%%%%%%%@oXoOO++++++$$$$$$$%%%%%%%%%%%%%%%%%%@o4XOO++++++",
"&**&:;&;:*&=&*@<.oXO>&$;%=*%**$:@*;*@*@*@;$=$*:%$:$@<.o.O$;&*&*&",
"*@*@;**=@*=*@@><-oo+&>@;@@*@=@>=*@;@;@=@@*=@*@>*@>@><.oX$&;@*;@:",
">@@*:=@;**:=@*><-.o+>@*:**=**>@*=@*;=;**@,*;@>@>@@>><-4o$;@@@;@;",
"@**@*;;*;@:=@=><-.o+>@@;@=*@=>@=*@;*;@=@*,@=@>*>@>@><-.o$&;@;@:;",
">@=@>*;:=@=*@@><-oX+&,@;@*=*,*>=@*;,;@=*,*@=*@>*@>@><2.o&;@@,@;*",
">&=>1;>:>:>,:>><-oX&@>*,>:>*=>*,>:>:=*>**,:>>*1>:>*><24X&@;>,>:>",
"<111111111111<<<.oX@=============,,,,,,,,,,,,,,,,,,<<2o.@=<=<<=<",
"---2---222---22-.o.o.5------55..5---22222---2222-----.oXo-------",
"XXo..oX.X.oo....ooXooo4.4.4.4oooX.Xo4...44ooX4..4oooXoX.X4.4Xooo",
"XOO+++++++%%%%%%%%%%%%%%%%%@oXXOO++++++++++%%%%%%%%%%%%%%%%%%%@o",
"XO*&%;%;%;&*&*&$*&*&*%&=&$><.oXO%>+@&*@&*&:&;=@*>*@;*@:*@;*@,@<-",
".O&*@:@;>*@@*:*@*=@>@*=*@>&<-o3+%:@=@=*>:*=@=*@=@>@;@*@=@:;@;><-",
"o%=@@>*,@=@>@*:@=*@>*@*=;@><-X +%;@;@=@>:@;@;@*=@>>@:>:*@@;@,><-",
"o%&*@1@,>*@*>;@;*=;@=@*=@>,<-X3+>@>:*=*:>@=*=*@;*>*;@*@=@;*@;><-",
"X%>=@1*;@=@,@=@*=*@*=@=*;;&<-oX+$>@>@*@*>@=@,>>1@1@,@1@@*=1>*><-",
"o$@=>>>,>1>>*=*>>*>>=>:>:>><-.X$@>:>*,>>>>=*>*1@,>@1>*1@,@1@>><-",
"o@:==============111111111<<-.X@==============,,,,,,,,,,,,<,;,<-",
"oo.-----------------...------ooo--------22222-...-222-----------",
"XXXXXoo.o...oX  XXXooo44..4..4XoooX.XoXo4.4.4oXXoo4.4oooX.XoooX.",
"%%%%%%%%%%@o.X++++++++%%%%%%%%%%%%%%%%%@oXX$O+++++++++%%%%%%%%%%",
"@&@&:$&&$@<.o.+@=@>@@=@*@@>@*=@@=@@>@;@<.oX+@;@>@@=@;*;@>@*@;@>@",
"@;*@:@;@*><-oX+=@;*@;@:>@**>**@*=@>*@=@<.XX+@,@>@*=@*@;**:>:;:*>",
"*;@:;@;:@><-o.+=@@;:@>@>@*@,@1**@*>:@;@<.X +@;@>@*@*@@;@>:*@:;@>",
"@*;@:@:;*><.oX+:=@;@;,:***>*@=@*=*:>*@;<.X +;@@>@=@@;;@;@*::*;>*",
"@*;@;@;:@><.oo+=@;,:@>**@*@>*1=:=@:>@;@<.oX$@;@@>@**;@;@>:*@;*@>",
">>*:>>:>>><.oo:=@@,@;>@>@=@,*=@*=:>:@=;<-oX$@,@>@@*@*@;@>:>:;@@>",
"<<1111111<<-oo@=========,,,,,,,,,,,,,,<<-oo@===============,,,,<",
"------------oXo-2222--...-22222---------.ooo----..o.--222-------",
"XoX.o..oo....oo...oooooXXoo...XoooX.o.o.ooXoX.XoX3 X6oo.XoXoX.X.",
".O+++++++%%%%%%%%%%%%%%%%%%%%%%@.X.OO++++++++%%%%%%%%%%%%%%%%%@o",
"X+@**@=@@;:@;@>*@=@;@*@=@=@@;>@<.oXO@@=@=@,@>@,@*,:*>@*;@;:>*@<-",
"o+@=@*=@*:;@=*,@:=@,*:*=@;@;@>:<-oo+*@=*=;,*,:;@,@=@>*>@*;:@=*<-",
"o+*=@=*>=@=@*;*@=:**,;@1:,*=**><-.o+*@==*@;,@;,:@,@>>@>@;@>*=@<-",
".+@*@*=@*;:@;@,*@=@,*@,:@;@@@>;<-.o+@=@*=@,@>:;;,*=@;*:*:;>@*@<-",
"X+@=*@=@=@=@=@>@==@,*;@;*=:=*>@<2.X+@==@=;,@,@,:,@=*>@>;@;:*=><-",
".$@=@=*>*:;@***@:=*;,=@1@>:;@>@<2.X$>@=*=@,;@;,:>*=@>@>@;:>@=@<-",
"X@=========11111111111111111111<-oX@=========,,,,,11111111111<<-",
".o----------...-2222---2222--22--o.o------222-5.5-2----222------",
"X.X.XoXooooX  XoX.XoXo4...4oXoo.ooX.Xoooooooo6XXX6oooo.7227.ooXo",
"+++++%%%%%%%%%%%%@oXoOO++++++++%%%%%%%%%%%%%%%@o.XO+++++%%%%%%%%",
";@,@@=:=@;$;@=@;@<-oo+@@@@=@1@;@=@=@:@=@=@,@>=<.oX+@=*@,@>@>@=@>",
"@;;@;@=:;=@,;=*=*<-oo+;@>@=>1;:;@*=*:=;*>*,@=@<5oX+=@,@>@>*@>@*1",
"@;,;@=:=;@;,@*=:;<-o4+;;>@=;;@,@1@@=@=@=*,**=><-oX+=@>>@@*>*>=>*",
";:,:==@=@;@,;>=@=<-o4+@1>@=@1@;:=@=*;=@=@*,>:=<-oX+@=,@*>>@>@=>@",
"=@;@=@=*@=@;,*@;*<-o4+1@@=@;>*,;1@=@=;;=*>,*>=<-oo+=@*@>@*>>,@>@",
"=@;;=::=:=;,@=@=:<-oo+1@>@=;;*1:=*1@;=@*=@,@,*<-.o+=@,>,@>@>,=@1",
";:,@==*=;;@,@=>*;<-oX$@1>@=@1*=@=@>=@=;@=*>*=*<-.o$==,@,@>@>@=@>",
"1111111111111111<<-oo@<<<<<111111111111111111<<2oX@<<11111111111",
"-------------------oXo.55--------------22222-222.oo------22222--",
".X.X...oooooXX.ooooXXXXXoooXoooXoo.ooo4..4..4o4.4Xoo.Xoooo4.4ooo"
};
