/* XPM */
static char *ddd385612bfc42f8fe6eea6fb91b459aTXoQSvhyTLJ8nqZp[] = {
/* columns rows colors chars-per-pixel */
"64 64 62 1 ",
"  c gray44",
". c gray33",
"X c #400040",
"o c gray22",
"O c #483818",
"+ c #484848",
"@ c #EC0000",
"# c #D40000",
"$ c #A40000",
"% c #E00000",
"& c #C80000",
"* c #BC0000",
"= c #FCF400",
"- c #B00000",
"; c #880000",
": c #640000",
"> c #2C2C2C",
", c #7C0000",
"< c #980000",
"1 c #700000",
"2 c #500050",
"3 c #E4D800",
"4 c #CCC400",
"5 c #848400",
"6 c #B4B4B4",
"7 c #580058",
"8 c #A86840",
"9 c #9C9C00",
"0 c #585400",
"q c #7C7C7C",
"w c #706C00",
"e c #E88C58",
"r c #543C1C",
"t c #989898",
"y c #580000",
"u c #FC2020",
"i c #400000",
"p c #FC0000",
"a c #C0C0C0",
"s c gray66",
"d c #D0D0D0",
"f c gray55",
"g c #6C0070",
"h c #646464",
"j c #600064",
"k c #202020",
"l c #B45400",
"z c #CC6000",
"x c #FC7800",
"c c #480048",
"v c #FC8820",
"b c #840084",
"n c #4C0000",
"m c #9C009C",
"M c #403018",
"N c gray25",
"B c gray19",
"V c #382C14",
"C c #302410",
"Z c #28200C",
"A c black",
"S c #744C28",
/* pixels */
" ...............................................................",
"Xooooooooooooooooooooooooooooooooooooooooooooooooooooooooooooooo",
"O.o.+++++.++++++.+o+++++++......+++++++++.......++++ooo++..+++++",
"Oo@@#########$++.@@##################$+o.@@@@%%%%%%#####&&&&***$",
"X+=&--#;$#;&$:>+.@*;*;*;*,*<*<*,*,*&$1>+o#$&-&--&1&,&-&;-$,&<&$=",
"2345666666666666666666666666666666666666666666666666666666666644",
"7890  qqqqqqqqqqqqqqqqqqqqqqqqqqqqqqqqqqqqqqqqqqqqqqqqqqqqq   we",
"2+r$qqqqttttttttttttttttttttttttttttttttttttttttttttttttttq qqy8",
"X+*,tqu$ii.1111111111111111111111111111111111111111$-p%qiiiqa yi",
"X+*$sq$at iqsadaa66666666666666666666666666666666aaaaaqiq tuq yi",
"X+,:6titatqftssfqsda6666666666666666666666666666fgha6sss sd$ qii",
"X++>dsitsatqqtt.7 sddaa6666666666666666666666aafhj2tssttsdqiqtkk",
"X.ood6. t6atqqf2777qsdaaaaa662 .2222lzx6666aafhj722ttttsdah.fsk>",
"k@##6diqts6at h+c2277qs66666622222q2llzv666fhj7222+tttsaasqitsyy",
"k-;;6d1tfts6h7 h+cc22777qf666 222222lf66fhjj77222+  2hsasfqis6yy",
"k;$;6d-stfthgj+ h+ccccb777 f66222222f6fhjj7b222c+ .gjjhstqf1s6yy",
"k1$$66<6tffcjgj7+h+occgc777766222222667jj72gcco+h+2jjggtfqf1s6yy",
"k$;;66;astfccjgjj7+.oXXccc7.6622222266.cccccco++c27jgggfqff1s6yy",
"X1$:661d6st+ccjggj7cXXXXccf66 222222 66fcccXXXcc27jggg.fqft166yy",
"X1-:661da6th+c7jjgj7gXXXcf2 6222222226 cfcXXc7cc7jggg.qqffs166yy",
"2inn661ddh2 ..+7jjg7b2XXc2c26622222266cccccc7g27jjg.qh++hts166iy",
"2>>>6616d72c+...+jjg7b222c2cqh222222hqccccccg77jj.fqh+XXcts166kk",
"O..+6616dj72ccXo++.h7777ccc2222222222cccccc227.hfq.2cXXXcss166k>",
"O.@@aa,a6jj22cXXXcc7m777cc22222222222ccccc277m77722cXXXX7ss166yy",
"O.@;dd<da7j72ccXXXccb77722222222222222cc22777m7772ccXXXc7ts,66yi",
"Mo@-aa;at 7j22cXXcXcg77222222..h  h..22277777b772ccXXXXc ts,66yi",
"2+*:66,6tt +72ccc2c27g2222222hgmggmgh2277777b772cccXXX+ tt6;66yi",
"X+*-661627+h  hh.+NBc27b72222qmggggmq27277b777..+NoN+.h+jga<aayi",
"X.*1ss1s2277772c2c2c2c27bg222.gggggg.227gb77772ccccXcc27jgd<ddyi",
"2+&$ss:s22277722c2c2c22222222qmggggmq272727772ccccccc277jja<aayi",
"7+$<ttnt227272722222222222222.gm+gmg.227277722ccccccc22jgja;aayi",
"M++ossys222727222222.2222.222q.g+gg.q272.7222.ccccccc22jj26,66kk",
"M...ss:sh22222222+ 22222.2222.qq..qq.2227.22c2c +ccc227j7h6166k>",
"V***6616th2222+  222222 2222222.qq.2222722 22ccc2  +2277ht6166yy",
"C$-$661666tttt 2222222 22222222222222222222 c2cccc2 tttt6ss:ssyy",
"Z$,;66166tt 222222222 2222222222222222222222 c2c2c2777 ttttyttyy",
"V;,$6616622222222222 2222 2 2222222222 2 2222 c2c27777722ffnffyy",
"M$;,661662222222222 2222ht 222222222222 th2222 2222777722ttyttyy",
"O$;,66,66 22222222 22222t2222222222222222t22222 22777772 tt:ttyy",
"O11;66,66t2222222 22222t222222222222222222t22222 2272722tss:ssyy",
"Miin66;666 22222 22222222222222222222222222222222 22272 666:66yy",
"C>>>aa;aaa6 222 222222t22222222222222222222t222222 222 6666166kk",
"C.+.dd$ddd66tttt22222t6m222222 2222 222222m6t22222tttt66666166k>",
"Zo@#aa<aaa66666tt222t666 2222222222222222 666t222tt666666aa;aayy",
"Z.#$66<6666666qllq6666ql222222222222222222lq6666qllq66aaaaa;aayi",
"A+#$66;6666666llllllllllSS22 62222226 22SSllllllllllaaaaddd<ddyi",
"A+#;66;66666666qhSllllSSq6666222222226666qSSllllShq666aaaaa<aayi",
"Ao#$66,6666666fllllllllll6662222222222666llllllllllf66666aa;aayi",
"X.#$ss1ssss666lSSfllS6fSl6q222222222222q6lSf6SllfSSl6666666166yi",
"Zo&$ss1ssssss6Sqf6lS6666q.22222222222222.q6666Sl6fqS6666666166yi",
"Z.$:66166666666666lS66q.222222222222222222.q66Sl66666666666166ii",
"Zo+>661t6666666666fl6222222222q2222q2222222226lf6666666666t166kk",
"X.o.661q6666666666666q.22222h62222226h22222.q6666666666666q166k>",
"Z###66q1qt6666666666666q.22h6q222222q6h22.q6666666666666tq1q66yy",
"Z,$yq66q111qt6666666666666666222222226666666666666666tf111qt6qyy",
"X$,,yq666tq1111qt666666666666h222222h666666666666tq1111ft666qyyy",
"X$,yyy.q66666tq111qt6666666666h2222h6666666666tq111qt66666q.yyy1",
"X,<yyyyy.q666666tq111qt66666666h22h66666666tq111qt66666q.yyyyy:1",
"X:$,$:y:yyyy.q66666tq111qt666666hh666666tq111qt66666q.yyyyyy1y$1",
"V:$,,:<<:yyyyyy.q66666tq1111qt666666tq1111qt66666q.yyyyyyy1$1y:$",
"7,<y$::;:,,$yyyyyyi.q66666tq111qttq111qt66666q.i>>>yyyy$y$1$1$:$",
"Znnnnnnnnnnnnnnnniikk>.q66666tq1111qt6666q.nnniik>>yiinnnnnnnnnn",
"Z>>>>>>>>>>>>>>>>>>>kkkkk>.q6666666666q.kkkkk>kkk>>>>>>>>>kkkkk>",
"Zo.o.ooo+++++.oooo>>>>>>>kkkkk.q66q.>kkkkk>>>>>>>>oo++.++++NoN++"
};
