/* XPM */
static char *_a8e91646d20497483b6cb5617bdec86BC3jBJlAHykZw0y1[] = {
/* columns rows colors chars-per-pixel */
"64 64 39 1 ",
"  c #2C2C2C",
". c gray33",
"X c #484848",
"o c gainsboro",
"O c #202020",
"+ c gray22",
"@ c gray55",
"# c gray66",
"$ c #C0C0C0",
"% c #D0D0D0",
"& c #B4B4B4",
"* c gray44",
"= c #7C7C7C",
"- c #646464",
"; c #FCF400",
": c #FCA85C",
"> c #FCFCD8",
", c #989898",
"< c #FC8820",
"1 c black",
"2 c #CC6000",
"3 c #9C4C00",
"4 c #FC0000",
"5 c #B00000",
"6 c #880000",
"7 c #E00000",
"8 c #980000",
"9 c #7C0000",
"0 c #700000",
"q c #BC0000",
"w c #ECECEC",
"e c #D40000",
"r c #C80000",
"t c #A80000",
"y c gray99",
"u c #EC0000",
"i c #FC2020",
"p c #FC5C5C",
"a c #A40000",
/* pixels */
"                                                                ",
" ..........XooooooooooooooooO+@#$%%%%%%$$#@.OXXXXXXXXXX.........",
" ..........Xo%%%$%%%%%%$%%%@O+@$&@#@@@@@@#.+O+*@@@@@@=*-XXXXXXXX",
" @@@@@@@;O.Xo%$&%&%$&%$$&%@-O+#o#@#@#@#@#@.+O+@oooooo$&#@@;@@@@@",
" %o%%&#:>O.Xo%####@####,##=.O+@$@@@####@@*.+O+@oo$$$%ooooo>:%%%%",
" ####:;>><;;;11;;;;;;;;;;;;;;;;;;;;;;;;;;;;;;;;;;;;;11;;;>>;;:#@",
" &,#,222;3333#111333333333333333333333333333333333311#1333:222.@",
" &&=&@-.<O..OO44511                              116511...2....#",
" ,##,,*XXO X--447758991++XXX.............XXX+++0555q5..-==-.-===",
" @@@@*.XXO X#w4477erq5tt5qe4yXy4eqt&1,t685reuii447eq5.-=@@#@=#@#",
" ****.X++O X@o4477erq5tt5qe4yXy4eqt&1,t685reuii447eq5.-=**------",
" ..XX+OOOO X*o4477erq5tt5qe4yXy4eqt&1,t685reuii447eq5.....XXXXXX",
" OOOOO    +.Xo4477erq5tt5qe4yXy4eqt&1,t685reuii447eq5+++++++    ",
"          +.X#4477erq5tt5qe4yXy4eqt&1,t685reuii447eq5+++  OOOOOO",
" ++++++++++.X@4477erq5tt5qe4yXy4eqt&1,t685reuii447eq5   ++++++++",
" .X++++++++.X*4477erq5tt5qe4yXy4eqt&1,t685reuii447eq5OOXXXXXXXXX",
" ,,,,,,,,, O.X4477erq5tt5qe4yXy4eqt&1,t685reuii447eq5.-=,,,,,,,,",
"1%%%%%%&&*+O.X4477erq5tt5qepyXy4eqt&1,t685reuii447eq5.-=oooooooo",
"=#,@#@##**+O.X4477erq5tt5qpyyXywwo%&1,,-85reuii447eq5.-=&&&&&&&&",
"=#@#@#@@**+OX.4477erq5tt5*oy.Xywwo%&#11=*Xreuii447eq5.-=,#,#@,@,",
"-#,@#@##*.+OX.4477erq5tt*$ Xy,X++ OO1,,11,*euii447eq5.-=,@,@,==@",
"X#@#@#@@*.+OX.4477erq5t*$ *y.Xywwo%&#11=*1#*uii447eq5.-=,#,#@,@,",
".@#==@@#*.+O+.4477erq5t&1*oXyy.++@%&#,*1**1&uii447eq5.-=,@,@,==@",
".@@==@#@-X+O+@4477erq5#1*$ yy@X++.%&#,,=1,*1%ii447eq5.-=@#@#@==@",
"X@@##@@@-X+O+o4477erq-#1$ oy@XX+.@%&.1 =*1#1%,i447eq5.-=,@,@@#@#",
".,#@@#@*.++O+o4477erq@1&1$o@.XX.@o%.111 *,1&1wi44ueq5+++...--*=@",
" -----.X+++O+oyyy%&,@@1&1$#X.XX.@o.O1111 ,1*1wwwo%#@*+++XXXXXX..",
" .XX+++OOOO++o==+++111#1$$o@.XX+..OO11111 *1%X-.. 111OOOOOOOOO++",
"1OOOOOOXXXXXXoyyy%&,@@#1$$oy@XX++ OO1 1111#1%wwwo%#@*OO++++   OO",
"1X--*@,@@@@XOo4477erq@#1$$oyy@X++ OO , 111#1%wi447rq5XX.......++",
" -@&ooo%%%#*Oo4477erq@#1$ @yyy.++ O -,,   #1%wi447rq5.-=@-.XXXXX",
" -&%%$&##,#XOw4477erq@#1$  @y@X++ OO1-,=*,#1%wi447rq5.-=oooooo,+",
" -o&##@#,#@*Owyyy%&,@@#1$  X.XX++.OO11-=*,#1%wwwo%#@*.-=#@@#@@=+",
" -o&,@#@#@#*Ow==+++111#1$. X.XX+@o.O111=*,*1%X-.. 111.-=@##@#@-+",
" -o#,#@##=#.Ooyyy%&@@@1*1$.X.XX@wo%.1111*,1&1wwwo%#@*.-=@@#@@#-+",
" -o&#@@#,#@.Oo4477erq@1&1$o@.X@wwo%.1111*,1&1wi447eq5.-=@#@#@#.+",
" -o&@##@#@#.O$4477erq5#1$ oyyyywwo.O111=*1#1%@i447eq5.-=@@#@@#.+",
" -o&##@#,#@.O&4477erq5#1$$ yyyywwoOO11,=1,*1wii447eq5++.......++",
" -o&@##@#=#.O,4477erq5t&1$oXyyywwo.O1,X1**1&*ii447eq5OOOOOOOOOOO",
" -o&@@,#@#@.O=4477erq5tp$ oy.Xywwo%&#11=X1#@uii447eq5OO+++++++++",
" -o&##@,#,#+O.4477erq5ttp$ XyyX++ OO1,,11,@euii447eq5+X.=======+",
" -o&@@#@#@*+OX4477erq5tt5po#.Xywwo%&*11=**reuii447eq5.-=$$$$$$=+",
" -%&##,#@#.O X4477erq5tt5qe,yXywwo%&1,,-85reuii447eq5.-=woo%%,- ",
" -%&,#@##@.O X4477erq5tt5qe4yXy4eqt&1,t685reuii447eq5.-=$&$$&=. ",
" -$&#@#@@@.O X4477erq5tt5qe4yXy4eqt&1,t685reuii447eq5.-=#@#@#*. ",
" X$@@#@***+O+X4477erq5tt5qe4yXy4eqt&1,t685reuii447eq5.-=@###@*. ",
" X&###@...O +X4477erq5tt5qe4yXy4eqt&1,t685reuii447eq5.-=#@#@#*. ",
" X===....+O +X4477erq5tt5qe4yXy4eqt&1,t685reuii447eq5.-=@=,@,*.O",
" X+OOO++++O+XX4477erq5tt5qe4yXy4eqt&1,t685reuii447eq5.-=@#@==*.O",
"1...X+OO O +X+4477erq5tt5qe4yXy4eqt&1,t685reuii447eq5.-==@,==*.O",
"1XXXXXXX   +X+4477erq5tt5qe4yXy4eqt&1,t685reuii447eq5.-=@@@@,*+O",
"1X=####,@-XX.+4477erq5tt5qe4yXy4eqt&1,t685reuii447eq5.-======-+O",
"1X#$ooooo$##@*4477erq5tt5qe4yXy4eqt&1,t685reuii447eq5+++++++++O ",
"1X#o##@$%ooo$#4477erq5tt5qe4yXy4eqt&1,t685reuii447eq5OOOOOOOOO +",
"1X#o###&&@#$oo4477erq5tt5qe4yXy4eqt&1,t685reuii447eq5OO      ++X",
"1X#o#@#==#,@=#4477erq5tt5qe4yXy4eqt&1,t685reuii447eq5OO++++++XXX",
"1X#%###,#@,@,#@.......XX++88#1#8888-1-11119aeii447eqOOXXXXXXX...",
"1X#$#@#==,#@##,@=======*--........O+X.......X++++++XX.=oo%$&,=XX",
"1X#@----------------------------..+O+X====**---.--===@#@#,#@#o,O",
"1X@-+++++++++++++++++++++++++++++++O X&#&=====-X&#@#@###@#@#@#.O",
"1X+OOOOOOOOOOOOOOOOOOOOOOOOOOOOOOOOO X+X+.-----Xo#,,##,,#,##@@.O",
" .X+++                               +..++OOOOO+...............O",
" ....XXXXXXXX+++++++++++++++++++++++++....++++++..OOOOOOOOOOOOOO",
"+OOOOOOOOOOOOOOOOOOOOOOOOOOOOOOOOOOOOOOOOOOOOOOOOOOOOOOOOOOOOOOO"
};
