/* XPM */
static char *edab32cd8d8b4579e3bfb2e57060c5b64nwDoV16YNDDCWmD[] = {
/* columns rows colors chars-per-pixel */
"64 64 66 1 ",
"  c gray22",
". c #2C2C2C",
"X c #202020",
"o c gray66",
"O c gray33",
"+ c #484848",
"@ c #989898",
"# c #D0D0D0",
"$ c gray55",
"% c gainsboro",
"& c black",
"* c #C0C0C0",
"= c gray44",
"- c #ECECEC",
"; c #646464",
": c #7C7C7C",
"> c #B4B4B4",
", c gray99",
"< c #000088",
"1 c #5C4020",
"2 c #885830",
"3 c #FCA85C",
"4 c #FCFCB8",
"5 c #FCF400",
"6 c #B45400",
"7 c #80502C",
"8 c #FCF420",
"9 c #CC6000",
"0 c #000070",
"q c #FC9840",
"w c #FC7800",
"e c #403018",
"r c #FCFCD8",
"t c #9C4C00",
"y c #28200C",
"u c #FCFC9C",
"i c #E46C00",
"p c #000064",
"a c #382C14",
"s c #6C4824",
"d c #00007C",
"f c #FCF85C",
"g c #483818",
"h c #FC8820",
"j c #744C28",
"k c #000058",
"l c #FCB080",
"z c #00004C",
"x c #A86840",
"c c #BC7848",
"v c gray19",
"b c #FC4040",
"n c #343434",
"m c #FC7C7C",
"M c #BC0000",
"N c #A40000",
"B c #640000",
"V c #FC2020",
"C c #FCB8B8",
"Z c #FC9C9C",
"A c #E00000",
"S c #FC5C5C",
"D c #FC0000",
"F c #980000",
"G c #FCD8D8",
"H c #B00000",
/* pixels */
" ...............................................................",
"XooooooooooO OOOO+++++.@#################o$.     +OOOOO%%%%%%%%@",
"&*%%%%##*o$O OO++=*--*O@*---------------#$;.---#=+ OOOO%-*o$o$o=",
"&%@*@oo$=O  O++&$--**o$Oo#-*************@;.#----#=+  OOOoo$@@o@=",
"&%*@o@$O  O+$$@.@#****$O$#-*oooooooooooo$;:-***#>$.@@  O;$$oo$:=",
"&%@o@:O  O+o#--*.O$*oo$=O$#>ooooooooooo@;.#*ooo*O.@-#:O O=$@:oo=",
"&%o$:+  O+#--##%$.O$ooo$O$**ooooooooooo$;:-ooooO.@-#o@:O O=$ooo=",
"&%o$=  O+#-##ooo%$.O$oo$=O$*$$$$$$$$$$$;.#*oooO.@-#ooo@:O +=$oo=",
"&#o=+ O+o-#*ooooo#$.O$$$=OOOOOOOOOOOOOOO.>>ooO.@-#ooooo@;O +O===",
"&*$= ++OO:%ooooooo#$.OOOOO...........X..OO$>=.@-#ooooooo:OO +O..",
"&$= ++>-@O:o*ooooo$*$.O  &&&&&&&&&&&&&&&&  O.@-#ooooooo:O.  .++ ",
"&O  +>-#-@.O:oooo$:;OO&&&&&&&&&&&&&&&&&&&&&&OO=#ooooo:O. @@= . +",
"&O++$-###-*.O;:$$:    &&&&&&&&&&&&&&&&&&&&&X   $#oo:; .o-##>= . ",
"&OO+>#*oo#-*=.O;;O  &&&&&&&&&&&&&&&&&&&&&&&XXX  $#;O.=o-#ooo:  .",
"&OO=-#ooooo--:..O &&&&&&&&&&&&&&&&&&&&&&&&&&XXXX O..o--*oooo>= .",
"&OO$-#oooooo#,:.&&&&&&&&&&&&&&&&&&&&&&&&&&&&&&XXX&.o,%*oooooo= .",
"<O+>-#oooooo$:O &&&&&&&&&&&&&&&&&&&&&&&&&12&&&&&&XO$--*oooooo= .",
"<O+>##oooooo$O &&&&&&34456&&&&784,37&&&&6549&&&XXX Oo--*ooooo: X",
"0O+>$$:$$$$$:O&&&&&&54qw1e&&&78r5t1&7&&&e3343e&&XXXO=-#*::OOOOOX",
"<O  ...OOOO=O &&&&&54qwyye&&&tuu43u457&&eye343e&XXX =O=OOO......",
"0+>-->$:....  &&&&&4qwyyyee&&ti,3i11e7&&7yee88e&&XX X ...=*--#$.",
"p+>-###--%@O  &&&&54qeyyy77&&&84i61&&&&&7yee343a&&&&X $#--#*>>=.",
"p+>-*ooooo*: &&&&&45wyyyy9ee&&853336y&&y6yes684a&&. O=*-**ooooO.",
"d+>-*oooooo= &&&&&43tyyeetf11tfrruu36y&73yss684a&X. O=*-*oooo$O.",
"<+>-*ooooo$; &&&&&49tyyyy73f4,rrrrrf61i3yess684a&X. O=*-*oooo$O.",
"0+>-*ooooo$O &&&&&497yyyyy73,,44444f61&yeess684a&X. O=*-*$$$$$O.",
"p+>#o$$$$$$O &&&&&49syayyyy13,5ffff561&yeess684a&X. O=@=OOOOOOO.",
"0+o:OOOOOOOO &&&&&49syayyyyytf5ffff31eyyeest684a&&&&&&&&&&&&&&&.",
"p+  ..&&&&&&&&&&&&49syg1&&yytf5333362e&&&ett984a&X. O=*------#$.",
"0+>-------#= &&&&&49se1&yyyyt53999962e&yeyyth84a&X. O=*-*****o=.",
"p+>-******$O &&&&&43tejyyyyyt83ttt696e&yett9384a&X. O=*-*oooooO.",
"k+>-*ooooo$O &&&&&54ty2eee&yt59122293e&&&t9h38la&X. O:*-*oooo$O.",
"z+>-*ooooo$O &&&&&&4ty21g&&&t39e11733e&&&&h384ja&X. O$*-*oooo$O.",
"z+>-*ooooo$O &&&&&&4311xy&&&289eey755e&&&&3384e&XX. O@*-*oooo$O.",
"k+>-*ooooo$O &&&&&&54ty1y&&&289eyyy5fe&&&&388ce&XX. O@*-*o$$$$O.",
"z+>-o$$$$$$O &&&&&&&5911e&&&1u9yyyy54e&&&&884e&&XXX O;:=OOOOOOO.",
"z+o:OOOOOOOO &&&&&&&53tee&&&1r9yyy154&&&&&846e&&&&&&&&&&&&&&&&&.",
"z+  ..&&&&&&&&&&&&&&s5t11&&t4441114,44t&&&46e&X..vv+=@#------#$.",
"z+>-------#= &&&&&&&&&tt&&&414,,5,55415&&&6e&&X..vv+=@*-******=.",
"k+>-******oO &&&&&&&&&&&&&5,,b,bbbb,b,b&&&e&&XX..vn+=@*-*oooooO.",
"&+>-*ooooo$O &&&&&&&&&&&m,4mbbbbbbbbbbbM&&&&&XX..nnO=@*-*oooo$O.",
"&+>-*ooooo$O &&&&&&&&&&m,mbbNBBBBBBBbbbbM&&&&XX.vn O=@*-*oooo$O.",
"&+>-*ooooo$O &&&&&&&&&m,mbNBBB&&&&&BBBbbbM&&&XX.vn+O=@*-*oooo$O.",
"&+>-o$$$$$$O &&&&&&&&VCmbN,,>&&,,,,,,,>bbbB&&XX.v +O=@*-*oooo$O.",
"&+o:OOOOOOOO &&&&&&&&ZCbbB,#+&&,######+MbbMy&&X.v +O=@*-*o$$$$O.",
"&+  ..&&&&&&&&&&&&&&V,mbAB,#+&&,#++++++BSbDB&&&XXXX O;:=OOOOOOO.",
"&+>-------#= &&&&&&&V,bbFB,#+&&,#+&&&&&BmbbFy&&&&&&&&&&&&&&&&&&.",
"&+>-******oO &&&&&&&SGbAB&,#+&&,#+&&&&&&mbbHy&X.vn O=@*------#$.",
"&+>-*ooooo$O &&&&&&&SGbAB&,#>,,,#@,,,,>&ZbbHy&X.vn +=@*-*****o=.",
"&+>-o$$$$$$O &&&&&&&SCbAB&,###########+&ZbbHy&X.vn +=@*-*oooooO.",
"&+o:OOOOOOOO &&&&&&&DZbAB&:++++@#+++@#+&ZbbHy&X.vn +=@*-*o$$$$O.",
"&+  .&&&&&&&&&&&&&&&DmbAB&&&&&&,#+&&,#+&ZbbHy&XXXXX O;:=OOOOOOO.",
"&+>-------#= &&&&&&&NmbbBB&&&&&,#+&&,#+BSbbF&&&&&&&&&&&&&&&&&&&.",
"&+>-******oO &&&&&&&&VmbN1,,,,,,#+&&,#+DDbVB&XX.vn +=@*------#$.",
"&+>-*ooooo$O &&&&&&&&NbbA1,######+&&,#+NbbHB&XX.vn +=@*-*****o=.",
"&+>-*ooooo$O &&&&&&&&&NbbN:+++++++&&:++bbbB&&XX.vn +=@*-*oooo$O.",
"&+>-o$$$$$$O &&&&&&&&&&bbbNBBB&&&&&BBNbbbN&&&XX.vn +=@*-*oooo$O.",
"&+o:OOOOOOOO &&&&&&&&ye&bbbSSbbbbbbACZbbN&ey&XX.vn O=@*-o$$$$$O.",
"&+  .&&&&&&&&&&&&&&&ye11&bbbmmZZCCCZbbbN&11eyXXXXXX O;:=OOOOOOO.",
"&+#-------#= &&&&&&&ye111&&bbbbbbbbbbb&1111ey&&&&&&&&&&&&&&&&&&.",
"&+#-oooooooO &&&,,,,,444uu5111111111115uurrrrrr>&n O=@#------#$.",
"X+#-o$$$$$$O &&&,555555555555555555555555555555$&n O=@#-*oo$$$=.",
".+o:OOOOOOOOO&. $OOOOOOOOOOOOOOOOOOOOOOOOOOOOOOO.XX O;:=OOOOOOO.",
"++++++++++++++ O;==============================; .X+++++++++++++"
};
